<?xml version="1.0" standalone="no"?>
<!DOCTYPE svg PUBLIC "-//W3C//DTD SVG 1.1//EN" "http://www.w3.org/Graphics/SVG/1.1/DTD/svg11.dtd">
<svg xmlns="http://www.w3.org/2000/svg" fill="none" class="logo1-icon" viewBox="0 0 110 110" width="110" height="110"><defs><radialGradient id="a" cx="50%" cy="50%" r="50%"><stop offset="0%" stop-color="#c084fc" stop-opacity=".25"/><stop offset="100%" stop-color="#f472b6" stop-opacity="0"/></radialGradient><linearGradient id="c" x1="0%" x2="100%" y1="0%" y2="100%"><stop offset="0%" stop-color="#c084fc"/><stop offset="50%" stop-color="#f472b6"/><stop offset="100%" stop-color="#38bdf8"/></linearGradient><filter id="b"><feGaussianBlur result="blur" stdDeviation="3"/><feMerge><feMergeNode in="blur"/><feMergeNode in="SourceGraphic"/></feMerge></filter></defs><ellipse cx="55" cy="55" fill="url(#a)" rx="52" ry="50"/><path fill="rgba(192,132,252,0.08)" stroke="url(#c)" stroke-width="2.5" d="M55 20c13 0 25 8 27 18 6 2 10 8 8 16 5 6 3 16-4 20-2 8-10 14-18 12-4 6-10 8-13 6-3 2-9 0-13-6-8 2-16-4-18-12-7-4-9-14-4-20-2-8 2-14 8-16 2-10 14-18 27-18Z" filter="url(#b)"/><path stroke="url(#c)" stroke-dasharray="3 4" stroke-width="1.5" d="M55 26v62" opacity=".5"/><path stroke="url(#c)" stroke-linecap="round" stroke-width="2" d="M35 42c3-4 9-2 9 4s-6 6-8 10 1 10 6 10"/><path stroke="url(#c)" stroke-linecap="round" stroke-width="1.5" d="M30 55c3-5 8-3 8 3" opacity=".7"/><path stroke="url(#c)" stroke-linecap="round" stroke-width="2" d="M75 42c-3-4-9-2-9 4s6 6 8 10-1 10-6 10"/><path stroke="url(#c)" stroke-linecap="round" stroke-width="1.5" d="M80 55c-3-5-8-3-8 3" opacity=".7"/><circle cx="20" cy="30" r="2.5" fill="#c084fc" opacity=".8"/><circle cx="90" cy="25" r="1.8" fill="#38bdf8" opacity=".7"/><circle cx="95" cy="75" r="2" fill="#f472b6" opacity=".6"/><circle cx="15" cy="70" r="1.5" fill="#34d399" opacity=".7"/></svg>