<svg width="132" height="24" viewBox="0 0 132 24" fill="none" xmlns="http://www.w3.org/2000/svg">
  <path d="M4.9 17.3V4H11.1C12.7 4 14 4.4 14.8 5.2C15.4 5.8 15.7 6.6 15.7 7.6C15.7 9.1 14.9 10 13.9 10.5C15.5 11 16.5 11.9 16.5 13.7C16.5 16 14.6 17.3 11.6 17.3H4.9ZM7.7 9.4H10.6C12.1 9.4 12.9 8.9 12.9 7.9C12.9 7 12.2 6.5 10.8 6.5H7.7V9.4ZM7.7 14.8H11.6C13.1 14.8 13.8 14.3 13.8 13.2C13.8 12.2 13 11.8 11.5 11.8H7.7V14.8Z" fill="#F4F0E8"/>
  <path d="M20.7 17.3V4H26.8C28.5 4 29.8 4.5 30.7 5.3C31.4 6 31.8 7 31.8 8.2C31.8 10.3 30.7 11.6 29.1 12.2L32.2 17.3H29L26.3 12.7H23.5V17.3H20.7ZM23.5 10.2H26.6C28 10.2 28.9 9.5 28.9 8.3C28.9 7 28 6.5 26.6 6.5H23.5V10.2Z" fill="#F4F0E8"/>
  <path d="M44.4 17.3L43.2 14.3H37.6L36.4 17.3H33.5L39.3 3.9H41.5L47.3 17.3H44.4ZM38.6 11.9H42.2L40.4 7.5L38.6 11.9Z" fill="#F4F0E8"/>
  <path d="M50.7 17.3V4H53.3L59.4 12.3V4H62.1V17.3H59.8L53.4 8.7V17.3H50.7Z" fill="#F4F0E8"/>
  <path d="M67.1 17.3V4H72.3C76.4 4 79.3 6.9 79.3 10.6C79.3 14.4 76.4 17.3 72.3 17.3H67.1ZM69.9 14.7H72.3C74.7 14.7 76.4 13.1 76.4 10.7C76.4 8.3 74.7 6.6 72.3 6.6H69.9V14.7Z" fill="#A4A4AA"/>
  <path d="M83.7 17.3V4H86.5V14.7H93.2V17.3H83.7Z" fill="#A4A4AA"/>
  <path d="M96.8 17.3V4H99.6V17.3H96.8Z" fill="#A4A4AA"/>
  <path d="M104.7 17.3V4H107.3L113.4 12.3V4H116.1V17.3H113.8L107.4 8.7V17.3H104.7Z" fill="#A4A4AA"/>
  <path d="M121.1 17.3V4H131.2V6.5H123.9V9.4H130.3V11.9H123.9V14.8H131.3V17.3H121.1Z" fill="#A66BFF"/>
</svg>
