<svg width="132" height="24" viewBox="0 0 132 24" fill="none" xmlns="http://www.w3.org/2000/svg">
  <path d="M5 17.3V4H15.1V6.5H7.8V9.4H14.2V11.9H7.8V14.8H15.2V17.3H5Z" fill="#F4F0E8"/>
  <path d="M19.5 17.3V4H22.3V14.7H29V17.3H19.5Z" fill="#F4F0E8"/>
  <path d="M32.7 17.3V4H42.8V6.5H35.5V9.4H41.9V11.9H35.5V14.8H42.9V17.3H32.7Z" fill="#F4F0E8"/>
  <path d="M51.1 17.4L45.7 4H48.8L52.2 13.5L55.6 4H58.6L53.2 17.4H51.1Z" fill="#F4F0E8"/>
  <path d="M69.5 17.3L68.3 14.3H62.7L61.5 17.3H58.6L64.4 3.9H66.6L72.4 17.3H69.5ZM63.7 11.9H67.3L65.5 7.5L63.7 11.9Z" fill="#A4A4AA"/>
  <path d="M78.8 17.3V6.6H74.7V4H85.7V6.6H81.6V17.3H78.8Z" fill="#A4A4AA"/>
  <path d="M89.3 17.3V4H99.4V6.5H92.1V9.4H98.5V11.9H92.1V14.8H99.5V17.3H89.3Z" fill="#A4A4AA"/>
  <path d="M107.9 17.3V4H113.1C117.2 4 120.1 6.9 120.1 10.6C120.1 14.4 117.2 17.3 113.1 17.3H107.9ZM110.7 14.7H113.1C115.5 14.7 117.2 13.1 117.2 10.7C117.2 8.3 115.5 6.6 113.1 6.6H110.7V14.7Z" fill="#A66BFF"/>
</svg>
