<svg width="132" height="24" viewBox="0 0 132 24" fill="none" xmlns="http://www.w3.org/2000/svg">
  <path d="M12.1 17.6C8 17.6 4.9 14.6 4.9 10.7C4.9 6.9 8 3.8 12 3.8C14.4 3.8 15.8 4.5 17.2 5.6L15.4 7.8C14.4 7 13.4 6.5 11.9 6.5C9.6 6.5 7.8 8.4 7.8 10.7C7.8 13.3 9.6 15 12.1 15C13.2 15 14.2 14.7 14.9 14.2V12.3H11.9V9.8H17.7V15.5C16.4 16.6 14.5 17.6 12.1 17.6Z" fill="#F4F0E8"/>
  <path d="M22.2 17.3V4H28.3C30 4 31.3 4.5 32.2 5.3C32.9 6 33.3 7 33.3 8.2C33.3 10.3 32.2 11.6 30.6 12.2L33.7 17.3H30.5L27.8 12.7H25V17.3H22.2ZM25 10.2H28.1C29.5 10.2 30.4 9.5 30.4 8.3C30.4 7 29.5 6.5 28.1 6.5H25V10.2Z" fill="#F4F0E8"/>
  <path d="M43 17.6C38.9 17.6 35.9 14.5 35.9 10.7C35.9 6.9 39 3.8 43.1 3.8C47.2 3.8 50.2 6.9 50.2 10.7C50.2 14.5 47.1 17.6 43 17.6ZM43.1 14.9C45.5 14.9 47.3 13 47.3 10.7C47.3 8.4 45.5 6.5 43 6.5C40.6 6.5 38.8 8.4 38.8 10.7C38.8 13 40.6 14.9 43.1 14.9Z" fill="#F4F0E8"/>
  <path d="M56.4 17.4L51.8 4H54.8L57.5 12.8L60.4 4H62.8L65.7 12.8L68.4 4H71.3L66.7 17.4H64.2L61.5 8.9L58.8 17.4H56.4Z" fill="#A4A4AA"/>
  <path d="M77.5 17.3V6.6H73.4V4H84.4V6.6H80.3V17.3H77.5Z" fill="#A4A4AA"/>
  <path d="M88 17.3V4H90.8V9.3H96.2V4H99V17.3H96.2V11.9H90.8V17.3H88Z" fill="#A4A4AA"/>
  <path d="M103.2 17.3L108 10.5L103.4 4H106.7L109.7 8.4L112.7 4H115.9L111.3 10.5L116.1 17.3H112.8L109.6 12.7L106.5 17.3H103.2Z" fill="#A66BFF"/>
</svg>
