<svg width="132" height="24" viewBox="0 0 132 24" fill="none" xmlns="http://www.w3.org/2000/svg">
  <path d="M5.4 17.3V4H8.2V14.7H14.9V17.3H5.4Z" fill="#F4F0E8"/>
  <path d="M18.5 17.3V4H28.6V6.5H21.3V9.4H27.7V11.9H21.3V14.8H28.7V17.3H18.5Z" fill="#F4F0E8"/>
  <path d="M41.5 17.3L40.3 14.3H34.7L33.5 17.3H30.6L36.4 3.9H38.6L44.4 17.3H41.5ZM35.7 11.9H39.3L37.5 7.5L35.7 11.9Z" fill="#F4F0E8"/>
  <path d="M47.8 17.3V4H50.4L56.5 12.3V4H59.2V17.3H56.9L50.5 8.7V17.3H47.8Z" fill="#F4F0E8"/>
  <path d="M68.9 17.5C66.5 17.5 64.7 16.6 63.4 15.2L65 13.3C66.1 14.4 67.4 15.1 69 15.1C70.4 15.1 71.2 14.5 71.2 13.6C71.2 12.7 70.6 12.3 68.3 11.8C65.5 11.1 63.9 10.2 63.9 7.7C63.9 5.3 65.9 3.7 68.7 3.7C70.7 3.7 72.3 4.3 73.6 5.4L72.2 7.4C71.2 6.6 70 6.1 68.7 6.1C67.4 6.1 66.7 6.7 66.7 7.5C66.7 8.5 67.4 8.8 69.8 9.4C72.5 10 74 11.1 74 13.4C74 16 71.9 17.5 68.9 17.5Z" fill="#A4A4AA"/>
  <path d="M80.7 17.3V6.6H76.6V4H87.6V6.6H83.5V17.3H80.7Z" fill="#A4A4AA"/>
  <path d="M99.1 17.3L97.9 14.3H92.3L91.1 17.3H88.2L94 3.9H96.2L102 17.3H99.1ZM93.3 11.9H96.9L95.1 7.5L93.3 11.9Z" fill="#A4A4AA"/>
  <path d="M105.4 17.3V4H111.5C113.2 4 114.5 4.5 115.4 5.3C116.1 6 116.5 7 116.5 8.2C116.5 10.3 115.4 11.6 113.8 12.2L116.9 17.3H113.7L111 12.7H108.2V17.3H105.4ZM108.2 10.2H111.3C112.7 10.2 113.6 9.5 113.6 8.3C113.6 7 112.7 6.5 111.3 6.5H108.2V10.2Z" fill="#A4A4AA"/>
  <path d="M123.2 17.3V6.6H119.1V4H130.1V6.6H126V17.3H123.2Z" fill="#A66BFF"/>
</svg>
