<svg width="132" height="24" viewBox="0 0 132 24" fill="none" xmlns="http://www.w3.org/2000/svg">
  <path d="M5.3 17.3V4H8.1V14.7H14.8V17.3H5.3Z" fill="#F4F0E8"/>
  <path d="M24.5 17.6C20.4 17.6 17.4 14.5 17.4 10.7C17.4 6.9 20.5 3.8 24.6 3.8C28.7 3.8 31.7 6.9 31.7 10.7C31.7 14.5 28.6 17.6 24.5 17.6ZM24.6 14.9C27 14.9 28.8 13 28.8 10.7C28.8 8.4 27 6.5 24.5 6.5C22.1 6.5 20.3 8.4 20.3 10.7C20.3 13 22.1 14.9 24.6 14.9Z" fill="#F4F0E8"/>
  <path d="M42.1 17.6C38 17.6 35 14.5 35 10.7C35 6.9 38.1 3.8 42.2 3.8C46.3 3.8 49.3 6.9 49.3 10.7C49.3 14.5 46.2 17.6 42.1 17.6ZM42.2 14.9C44.6 14.9 46.4 13 46.4 10.7C46.4 8.4 44.6 6.5 42.1 6.5C39.7 6.5 37.9 8.4 37.9 10.7C37.9 13 39.7 14.9 42.2 14.9Z" fill="#F4F0E8"/>
  <path d="M53.7 17.3V4H59.1C62.3 4 64.2 5.8 64.2 8.5C64.2 11.5 62 13 58.8 13H56.5V17.3H53.7ZM56.5 10.5H58.9C60.4 10.5 61.3 9.7 61.3 8.5C61.3 7.2 60.4 6.6 58.8 6.6H56.5V10.5Z" fill="#F4F0E8"/>
  <path d="M72.5 17.5C70.1 17.5 68.3 16.6 67 15.2L68.6 13.3C69.7 14.4 71 15.1 72.6 15.1C74 15.1 74.8 14.5 74.8 13.6C74.8 12.7 74.2 12.3 71.9 11.8C69.1 11.1 67.5 10.2 67.5 7.7C67.5 5.3 69.5 3.7 72.3 3.7C74.3 3.7 75.9 4.3 77.2 5.4L75.8 7.4C74.8 6.6 73.6 6.1 72.3 6.1C71 6.1 70.3 6.7 70.3 7.5C70.3 8.5 71 8.8 73.4 9.4C76.1 10 77.6 11.1 77.6 13.4C77.6 16 75.5 17.5 72.5 17.5Z" fill="#A4A4AA"/>
  <path d="M87.5 17.6C83.6 17.6 80.7 14.6 80.7 10.7C80.7 6.9 83.6 3.8 87.6 3.8C90 3.8 91.5 4.6 92.8 5.8L91 7.9C90 7 89 6.5 87.6 6.5C85.3 6.5 83.6 8.4 83.6 10.7C83.6 13.1 85.3 14.9 87.6 14.9C89.1 14.9 90 14.3 91.1 13.4L92.9 15.2C91.5 16.6 90 17.6 87.5 17.6Z" fill="#A4A4AA"/>
  <path d="M105.2 17.3L104 14.3H98.4L97.2 17.3H94.3L100.1 3.9H102.3L108.1 17.3H105.2ZM99.4 11.9H103L101.2 7.5L99.4 11.9Z" fill="#A4A4AA"/>
  <path d="M111.5 17.3V4H114.3V14.7H121V17.3H111.5Z" fill="#A66BFF"/>
  <path d="M124.7 17.3V4H131.2V6.5H127.5V9.4H130.8V11.9H127.5V14.8H131.3V17.3H124.7Z" fill="#A66BFF"/>
</svg>
