<svg width="132" height="24" viewBox="0 0 132 24" fill="none" xmlns="http://www.w3.org/2000/svg">
  <path d="M8 17.5C5.6 17.5 3.8 16.6 2.5 15.2L4.1 13.3C5.2 14.4 6.5 15.1 8.1 15.1C9.5 15.1 10.3 14.5 10.3 13.6C10.3 12.7 9.7 12.3 7.4 11.8C4.6 11.1 3 10.2 3 7.7C3 5.3 5 3.7 7.8 3.7C9.8 3.7 11.4 4.3 12.7 5.4L11.3 7.4C10.3 6.6 9.1 6.1 7.8 6.1C6.5 6.1 5.8 6.7 5.8 7.5C5.8 8.5 6.5 8.8 8.9 9.4C11.6 10 13.1 11.1 13.1 13.4C13.1 16 11 17.5 8 17.5Z" fill="#F4F0E8"/>
  <path d="M26.4 17.3L25.2 14.3H19.6L18.4 17.3H15.6L21.4 3.9H23.6L29.3 17.3H26.4ZM20.6 11.9H24.2L22.4 7.5L20.6 11.9Z" fill="#F4F0E8"/>
  <path d="M40.5 17.3L39.3 14.3H33.7L32.5 17.3H29.7L35.5 3.9H37.7L43.4 17.3H40.5ZM34.7 11.9H38.3L36.5 7.5L34.7 11.9Z" fill="#F4F0E8"/>
  <path d="M50.9 17.5C48.5 17.5 46.7 16.6 45.4 15.2L47 13.3C48.1 14.4 49.4 15.1 51 15.1C52.4 15.1 53.2 14.5 53.2 13.6C53.2 12.7 52.6 12.3 50.3 11.8C47.5 11.1 45.9 10.2 45.9 7.7C45.9 5.3 47.9 3.7 50.7 3.7C52.7 3.7 54.3 4.3 55.6 5.4L54.2 7.4C53.2 6.6 52 6.1 50.7 6.1C49.4 6.1 48.7 6.7 48.7 7.5C48.7 8.5 49.4 8.8 51.8 9.4C54.5 10 56 11.1 56 13.4C56 16 53.9 17.5 50.9 17.5Z" fill="#F4F0E8"/>
  <path d="M63.2 17.3V3.9H66V14.8H72.8V17.3H63.2Z" fill="#A4A4AA"/>
  <path d="M84.8 17.3L83.6 14.3H78L76.8 17.3H74L79.8 3.9H82L87.7 17.3H84.8ZM79 11.9H82.6L80.8 7.5L79 11.9Z" fill="#A4A4AA"/>
  <path d="M90.6 17.3V3.9H96.8C98.4 3.9 99.7 4.3 100.5 5.1C101.1 5.7 101.4 6.5 101.4 7.5C101.4 9 100.6 9.9 99.6 10.4C101.2 10.9 102.2 11.8 102.2 13.6C102.2 16 100.2 17.3 97.2 17.3H90.6ZM93.3 9.3H96.2C97.7 9.3 98.6 8.8 98.6 7.8C98.6 6.9 97.9 6.4 96.5 6.4H93.3V9.3ZM93.3 14.8H97.2C98.7 14.8 99.5 14.3 99.5 13.2C99.5 12.2 98.7 11.7 97.1 11.7H93.3V14.8Z" fill="#A4A4AA"/>
  <path d="M110.7 17.5C108.3 17.5 106.5 16.6 105.2 15.2L106.8 13.3C107.9 14.4 109.2 15.1 110.8 15.1C112.2 15.1 113 14.5 113 13.6C113 12.7 112.4 12.3 110.1 11.8C107.3 11.1 105.7 10.2 105.7 7.7C105.7 5.3 107.7 3.7 110.5 3.7C112.5 3.7 114.1 4.3 115.4 5.4L114 7.4C113 6.6 111.8 6.1 110.5 6.1C109.2 6.1 108.5 6.7 108.5 7.5C108.5 8.5 109.2 8.8 111.6 9.4C114.3 10 115.8 11.1 115.8 13.4C115.8 16 113.7 17.5 110.7 17.5Z" fill="#A4A4AA"/>
</svg>
